<svg width="20" height="20" viewBox="0 0 20 20" fill="none" xmlns="http://www.w3.org/2000/svg">
<path d="M9.99953 1.09881e-07C8.10666 -0.000280442 6.25259 0.536679 4.65282 1.54846C3.05305 2.56025 1.77331 4.0053 0.962331 5.71564C0.151358 7.42599 -0.157532 9.33138 0.071568 11.2103C0.300668 13.0893 1.05835 14.8646 2.25653 16.33L0.292535 18.293C0.152725 18.4329 0.057519 18.611 0.0189514 18.805C-0.0196161 18.9989 0.000186883 19.2 0.0758569 19.3827C0.151527 19.5654 0.279666 19.7215 0.444076 19.8314C0.608486 19.9413 0.801785 20 0.999535 20H9.99953C12.6517 20 15.1952 18.9464 17.0706 17.0711C18.946 15.1957 19.9995 12.6522 19.9995 10C19.9995 7.34784 18.946 4.8043 17.0706 2.92893C15.1952 1.05357 12.6517 1.09881e-07 9.99953 1.09881e-07ZM6.99954 5H12.9995C13.2648 5 13.5191 5.10536 13.7066 5.29289C13.8942 5.48043 13.9995 5.73478 13.9995 6C13.9995 6.26522 13.8942 6.51957 13.7066 6.70711C13.5191 6.89464 13.2648 7 12.9995 7H6.99954C6.73432 7 6.47996 6.89464 6.29243 6.70711C6.10489 6.51957 5.99954 6.26522 5.99954 6C5.99954 5.73478 6.10489 5.48043 6.29243 5.29289C6.47996 5.10536 6.73432 5 6.99954 5ZM12.9995 15H6.99954C6.73432 15 6.47996 14.8946 6.29243 14.7071C6.10489 14.5196 5.99954 14.2652 5.99954 14C5.99954 13.7348 6.10489 13.4804 6.29243 13.2929C6.47996 13.1054 6.73432 13 6.99954 13H12.9995C13.2648 13 13.5191 13.1054 13.7066 13.2929C13.8942 13.4804 13.9995 13.7348 13.9995 14C13.9995 14.2652 13.8942 14.5196 13.7066 14.7071C13.5191 14.8946 13.2648 15 12.9995 15ZM14.9995 11H4.99954C4.73432 11 4.47996 10.8946 4.29243 10.7071C4.10489 10.5196 3.99954 10.2652 3.99954 10C3.99954 9.73478 4.10489 9.48043 4.29243 9.29289C4.47996 9.10536 4.73432 9 4.99954 9H14.9995C15.2648 9 15.5191 9.10536 15.7066 9.29289C15.8942 9.48043 15.9995 9.73478 15.9995 10C15.9995 10.2652 15.8942 10.5196 15.7066 10.7071C15.5191 10.8946 15.2648 11 14.9995 11Z" fill="#042FBD"/>
</svg>
