<svg width="75" height="55" viewBox="0 0 75 55" fill="none" xmlns="http://www.w3.org/2000/svg">
<rect x="0.898438" y="0.358643" width="73.1777" height="54.6102" rx="10.922" fill="#D66CFF"/>
<path d="M29 22.7732H34.3333" stroke="white" stroke-width="1.5" stroke-linecap="round" stroke-linejoin="round"/>
<path d="M48.7773 24.1064H45.308C42.928 24.1064 41 25.8971 41 28.1064C41 30.3158 42.9293 32.1064 45.3067 32.1064H48.7773C48.8893 32.1064 48.944 32.1064 48.9907 32.1038C49.7107 32.0598 50.284 31.5278 50.3307 30.8598C50.3333 30.8171 50.3333 30.7651 50.3333 30.6624V25.5504C50.3333 25.4478 50.3333 25.3958 50.3307 25.3531C50.2827 24.6851 49.7107 24.1531 48.9907 24.1091C48.9453 24.1064 48.8893 24.1064 48.7773 24.1064Z" stroke="white" stroke-width="1.5"/>
<path d="M48.9532 24.1065C48.8492 21.6105 48.5158 20.0798 47.4372 19.0025C45.8758 17.4398 43.3612 17.4398 38.3332 17.4398H34.3332C29.3052 17.4398 26.7905 17.4398 25.2292 19.0025C23.6678 20.5652 23.6665 23.0785 23.6665 28.1065C23.6665 33.1345 23.6665 35.6492 25.2292 37.2105C26.7918 38.7718 29.3052 38.7732 34.3332 38.7732H38.3332C43.3612 38.7732 45.8758 38.7732 47.4372 37.2105C48.5158 36.1332 48.8505 34.6025 48.9532 32.1065" stroke="white" stroke-width="1.5"/>
<path d="M44.9878 28.1064H45.0011" stroke="white" stroke-width="2" stroke-linecap="round" stroke-linejoin="round"/>
</svg>
