<svg width="74" height="55" viewBox="0 0 74 55" fill="none" xmlns="http://www.w3.org/2000/svg">
<rect x="0.215332" y="0.358643" width="73.1777" height="54.6102" rx="10.922" fill="#00C2AD"/>
<path d="M48.4286 15.6386C48.7287 15.6386 49.026 15.6978 49.3033 15.8126C49.5806 15.9275 49.8326 16.0959 50.0448 16.3081C50.2571 16.5203 50.4254 16.7723 50.5403 17.0496C50.6552 17.327 50.7143 17.6242 50.7143 17.9244V36.2101C50.7143 36.5103 50.6552 36.8075 50.5403 37.0848C50.4254 37.3621 50.2571 37.6141 50.0448 37.8263C49.8326 38.0386 49.5806 38.207 49.3033 38.3218C49.026 38.4367 48.7287 38.4958 48.4286 38.4958H25.5714C25.2713 38.4958 24.9741 38.4367 24.6967 38.3218C24.4194 38.207 24.1674 38.0386 23.9552 37.8263C23.7429 37.6141 23.5746 37.3621 23.4597 37.0848C23.3448 36.8075 23.2857 36.5103 23.2857 36.2101V17.9243C23.2857 17.6241 23.3448 17.3269 23.4597 17.0496C23.5746 16.7723 23.7429 16.5203 23.9552 16.3081C24.1674 16.0958 24.4194 15.9275 24.6967 15.8126C24.9741 15.6977 25.2713 15.6386 25.5714 15.6386L48.4286 15.6386ZM48.4286 13.3529H25.5714C24.9711 13.3529 24.3767 13.4712 23.822 13.7009C23.2674 13.9306 22.7635 14.2674 22.339 14.6919C21.9145 15.1163 21.5777 15.6203 21.348 16.1749C21.1183 16.7295 21 17.324 21 17.9243V36.2101C21 37.4225 21.4816 38.5852 22.3389 39.4425C23.1962 40.2998 24.359 40.7815 25.5714 40.7815H48.4286C49.0289 40.7815 49.6233 40.6632 50.178 40.4335C50.7326 40.2038 51.2366 39.867 51.6611 39.4425C52.0856 39.018 52.4223 38.5141 52.652 37.9595C52.8818 37.4048 53 36.8104 53 36.2101V17.9243C53 16.7119 52.5184 15.5491 51.6611 14.6918C50.8038 13.8345 49.641 13.3529 48.4286 13.3529L48.4286 13.3529ZM43.8572 20.2101C43.554 20.2101 43.2634 20.3305 43.049 20.5448C42.8347 20.7591 42.7143 21.0498 42.7143 21.3529V32.7815C42.7143 33.0846 42.8347 33.3753 43.049 33.5896C43.2633 33.804 43.554 33.9244 43.8572 33.9244C44.1603 33.9244 44.451 33.804 44.6653 33.5896C44.8796 33.3753 45 33.0846 45 32.7815V21.3529C45 21.0498 44.8796 20.7591 44.6653 20.5448C44.4509 20.3305 44.1603 20.2101 43.8572 20.2101ZM30.1429 20.2101C29.8398 20.2101 29.5491 20.3305 29.3347 20.5448C29.1204 20.7591 29 21.0498 29 21.3529V32.7815C29 33.0846 29.1204 33.3753 29.3347 33.5896C29.5491 33.804 29.8397 33.9244 30.1429 33.9244C30.446 33.9244 30.7367 33.804 30.951 33.5896C31.1653 33.3753 31.2857 33.0846 31.2857 32.7815V21.3529C31.2857 21.0498 31.1653 20.7591 30.951 20.5448C30.7366 20.3305 30.446 20.2101 30.1429 20.2101ZM37 22.4958C36.6969 22.4958 36.4062 22.6162 36.1919 22.8305C35.9776 23.0449 35.8572 23.3355 35.8571 23.6386V24.7815C35.8571 25.0846 35.9775 25.3753 36.1919 25.5896C36.4062 25.804 36.6969 25.9244 37 25.9244C37.3031 25.9244 37.5938 25.804 37.8081 25.5896C38.0225 25.3753 38.1429 25.0846 38.1429 24.7815V23.6387C38.1429 23.3356 38.0224 23.0449 37.8081 22.8306C37.5938 22.6162 37.3031 22.4958 37 22.4958ZM37 28.2101C36.6969 28.2101 36.4062 28.3305 36.1919 28.5448C35.9776 28.7592 35.8572 29.0498 35.8571 29.3529V30.4958C35.8571 30.7989 35.9775 31.0896 36.1919 31.3039C36.4062 31.5182 36.6969 31.6386 37 31.6386C37.3031 31.6386 37.5938 31.5182 37.8081 31.3039C38.0225 31.0896 38.1429 30.7989 38.1429 30.4958V29.3529C38.1429 29.0498 38.0224 28.7592 37.8081 28.5448C37.5938 28.3305 37.3031 28.2101 37 28.2101Z" fill="white"/>
</svg>
