<svg width="74" height="55" viewBox="0 0 74 55" fill="none" xmlns="http://www.w3.org/2000/svg">
<rect width="73.1777" height="54.6102" rx="10.922" fill="#D66CFF"/>
<path d="M34.5347 18.6687L37.2847 15.9187M31.7847 33.7937L42.7847 22.7937M37.2847 40.6687L40.0347 37.9187M43.4722 37.9187C44.3838 37.9187 45.2582 37.5565 45.9028 36.9119C46.5475 36.2672 46.9097 35.3929 46.9097 34.4812C46.9097 33.5695 46.5475 32.6952 45.9028 32.0505C45.2582 31.4059 44.3838 31.0437 43.4722 31.0437C42.5605 31.0437 41.6861 31.4059 41.0415 32.0505C40.3968 32.6952 40.0347 33.5695 40.0347 34.4812C40.0347 35.3929 40.3968 36.2672 41.0415 36.9119C41.6861 37.5565 42.5605 37.9187 43.4722 37.9187ZM31.0972 25.5437C32.0088 25.5437 32.8832 25.1815 33.5278 24.5369C34.1725 23.8922 34.5347 23.0179 34.5347 22.1062C34.5347 21.1945 34.1725 20.3202 33.5278 19.6755C32.8832 19.0309 32.0088 18.6687 31.0972 18.6687C30.1855 18.6687 29.3111 19.0309 28.6665 19.6755C28.0218 20.3202 27.6597 21.1945 27.6597 22.1062C27.6597 23.0179 28.0218 23.8922 28.6665 24.5369C29.3111 25.1815 30.1855 25.5437 31.0972 25.5437ZM28.3472 40.6687C29.2588 40.6687 30.1332 40.3065 30.7778 39.6619C31.4225 39.0172 31.7847 38.1429 31.7847 37.2312C31.7847 36.3195 31.4225 35.4452 30.7778 34.8005C30.1332 34.1559 29.2588 33.7937 28.3472 33.7937C27.4355 33.7937 26.5611 34.1559 25.9165 34.8005C25.2718 35.4452 24.9097 36.3195 24.9097 37.2312C24.9097 38.1429 25.2718 39.0172 25.9165 39.6619C26.5611 40.3065 27.4355 40.6687 28.3472 40.6687ZM46.2222 22.7937C47.1338 22.7937 48.0082 22.4315 48.6528 21.7869C49.2975 21.1422 49.6597 20.2679 49.6597 19.3562C49.6597 18.4445 49.2975 17.5702 48.6528 16.9255C48.0082 16.2809 47.1338 15.9187 46.2222 15.9187C45.3105 15.9187 44.4361 16.2809 43.7915 16.9255C43.1468 17.5702 42.7847 18.4445 42.7847 19.3562C42.7847 20.2679 43.1468 21.1422 43.7915 21.7869C44.4361 22.4315 45.3105 22.7937 46.2222 22.7937Z" stroke="white" stroke-width="2" stroke-linecap="round" stroke-linejoin="round"/>
</svg>
