<svg width="75" height="56" viewBox="0 0 75 56" fill="none" xmlns="http://www.w3.org/2000/svg">
<rect x="0.898438" y="0.5979" width="73.1777" height="54.6102" rx="10.922" fill="#00C2AD"/>
<g clip-path="url(#clip0_44_75)">
<path d="M47 29C47.6875 29 48.3333 29.1302 48.9375 29.3906C49.5417 29.651 50.0729 30.0052 50.5312 30.4531C50.9896 30.901 51.349 31.4323 51.6094 32.0469C51.8698 32.6615 52 33.3125 52 34C52 34.5417 51.9167 35.0677 51.75 35.5781C51.5833 36.0885 51.3333 36.5625 51 37V43.625L47 41.625L43 43.625V37C42.6771 36.5625 42.4323 36.0885 42.2656 35.5781C42.099 35.0677 42.0104 34.5417 42 34C42 33.3125 42.1302 32.6667 42.3906 32.0625C42.651 31.4583 43.0052 30.9271 43.4531 30.4688C43.901 30.0104 44.4323 29.651 45.0469 29.3906C45.6615 29.1302 46.3125 29 47 29ZM47 31C46.5833 31 46.1927 31.0781 45.8281 31.2344C45.4635 31.3906 45.1458 31.6042 44.875 31.875C44.6042 32.1458 44.3906 32.4635 44.2344 32.8281C44.0781 33.1927 44 33.5833 44 34C44 34.4167 44.0781 34.8073 44.2344 35.1719C44.3906 35.5365 44.6042 35.8542 44.875 36.125C45.1458 36.3958 45.4635 36.6094 45.8281 36.7656C46.1927 36.9219 46.5833 37 47 37C47.4167 37 47.8073 36.9219 48.1719 36.7656C48.5365 36.6094 48.8542 36.3958 49.125 36.125C49.3958 35.8542 49.6094 35.5365 49.7656 35.1719C49.9219 34.8073 50 34.4167 50 34C50 33.5833 49.9219 33.1927 49.7656 32.8281C49.6094 32.4635 49.3958 32.1458 49.125 31.875C48.8542 31.6042 48.5365 31.3906 48.1719 31.2344C47.8073 31.0781 47.4167 31 47 31ZM49 40.375V38.5781C48.375 38.8594 47.7083 39 47 39C46.2917 39 45.625 38.8594 45 38.5781V40.375L47 39.375L49 40.375ZM47 20C46.4479 20 45.9323 20.1042 45.4531 20.3125C44.974 20.5208 44.5469 20.8073 44.1719 21.1719C43.7969 21.5365 43.5104 21.9583 43.3125 22.4375C43.1146 22.9167 43.0104 23.4375 43 24C43 24.9583 42.7865 25.8594 42.3594 26.7031C41.9323 27.5469 41.3281 28.2604 40.5469 28.8438C40.7448 28.9375 40.9323 29.0417 41.1094 29.1562C41.2865 29.2708 41.4688 29.3906 41.6562 29.5156L40.4844 31.1406C39.974 30.776 39.4219 30.4948 38.8281 30.2969C38.2344 30.099 37.625 30 37 30C36.1667 30 35.3906 30.1562 34.6719 30.4688C33.9531 30.7812 33.3177 31.2083 32.7656 31.75C32.2135 32.2917 31.7812 32.9323 31.4688 33.6719C31.1562 34.4115 31 35.1875 31 36H29C29 35.2396 29.1042 34.5052 29.3125 33.7969C29.5208 33.0885 29.8177 32.4219 30.2031 31.7969C30.5885 31.1719 31.0521 30.6094 31.5938 30.1094C32.1354 29.6094 32.75 29.1823 33.4375 28.8281C32.6667 28.2552 32.0677 27.5469 31.6406 26.7031C31.2135 25.8594 31 24.9583 31 24C31 23.4479 30.8958 22.9323 30.6875 22.4531C30.4792 21.974 30.1927 21.5469 29.8281 21.1719C29.4635 20.7969 29.0417 20.5104 28.5625 20.3125C28.0833 20.1146 27.5625 20.0104 27 20C26.4479 20 25.9323 20.1042 25.4531 20.3125C24.974 20.5208 24.5469 20.8073 24.1719 21.1719C23.7969 21.5365 23.5104 21.9583 23.3125 22.4375C23.1146 22.9167 23.0104 23.4375 23 24H21C21 23.4583 21.0729 22.9323 21.2188 22.4219C21.3646 21.9115 21.5677 21.4271 21.8281 20.9688C22.0885 20.5104 22.4115 20.0938 22.7969 19.7188C23.1823 19.3438 23.6146 19.0208 24.0938 18.75C23.75 18.3854 23.4844 17.9635 23.2969 17.4844C23.1094 17.0052 23.0104 16.5104 23 16C23 15.4479 23.1042 14.9323 23.3125 14.4531C23.5208 13.974 23.8073 13.5469 24.1719 13.1719C24.5365 12.7969 24.9583 12.5104 25.4375 12.3125C25.9167 12.1146 26.4375 12.0104 27 12C27.5521 12 28.0677 12.1042 28.5469 12.3125C29.026 12.5208 29.4531 12.8073 29.8281 13.1719C30.2031 13.5365 30.4896 13.9583 30.6875 14.4375C30.8854 14.9167 30.9896 15.4375 31 16C31 16.5104 30.9062 17.0052 30.7188 17.4844C30.5312 17.9635 30.2604 18.3854 29.9062 18.75C30.7604 19.2188 31.4583 19.8646 32 20.6875C32.2812 20.2708 32.6042 19.8958 32.9688 19.5625C33.3333 19.2292 33.7292 18.9479 34.1562 18.7188C34.5833 18.4896 35.0365 18.3125 35.5156 18.1875C35.9948 18.0625 36.4896 18 37 18C37.5 18 37.9896 18.0625 38.4688 18.1875C38.9479 18.3125 39.401 18.4896 39.8281 18.7188C40.2552 18.9479 40.6562 19.2292 41.0312 19.5625C41.4062 19.8958 41.7292 20.2708 42 20.6875C42.5417 19.8646 43.2396 19.2188 44.0938 18.75C43.75 18.3854 43.4844 17.9635 43.2969 17.4844C43.1094 17.0052 43.0104 16.5104 43 16C43 15.4479 43.1042 14.9323 43.3125 14.4531C43.5208 13.974 43.8073 13.5469 44.1719 13.1719C44.5365 12.7969 44.9583 12.5104 45.4375 12.3125C45.9167 12.1146 46.4375 12.0104 47 12C47.5521 12 48.0677 12.1042 48.5469 12.3125C49.026 12.5208 49.4531 12.8073 49.8281 13.1719C50.2031 13.5365 50.4896 13.9583 50.6875 14.4375C50.8854 14.9167 50.9896 15.4375 51 16C51 16.5104 50.9062 17.0052 50.7188 17.4844C50.5312 17.9635 50.2604 18.3854 49.9062 18.75C50.3854 19.0208 50.8125 19.3438 51.1875 19.7188C51.5625 20.0938 51.8854 20.5052 52.1562 20.9531C52.4271 21.401 52.6354 21.8854 52.7812 22.4062C52.9271 22.9271 53 23.4583 53 24H51C51 23.4479 50.8958 22.9323 50.6875 22.4531C50.4792 21.974 50.1927 21.5469 49.8281 21.1719C49.4635 20.7969 49.0417 20.5104 48.5625 20.3125C48.0833 20.1146 47.5625 20.0104 47 20ZM45 16C45 16.2812 45.0521 16.5417 45.1562 16.7812C45.2604 17.0208 45.401 17.2292 45.5781 17.4062C45.7552 17.5833 45.9688 17.7292 46.2188 17.8438C46.4688 17.9583 46.7292 18.0104 47 18C47.2812 18 47.5417 17.9479 47.7812 17.8438C48.0208 17.7396 48.2292 17.599 48.4062 17.4219C48.5833 17.2448 48.7292 17.0312 48.8438 16.7812C48.9583 16.5312 49.0104 16.2708 49 16C49 15.7188 48.9479 15.4583 48.8438 15.2188C48.7396 14.9792 48.599 14.7708 48.4219 14.5938C48.2448 14.4167 48.0312 14.2708 47.7812 14.1562C47.5312 14.0417 47.2708 13.9896 47 14C46.7188 14 46.4583 14.0521 46.2188 14.1562C45.9792 14.2604 45.7708 14.401 45.5938 14.5781C45.4167 14.7552 45.2708 14.9688 45.1562 15.2188C45.0417 15.4688 44.9896 15.7292 45 16ZM25 16C25 16.2812 25.0521 16.5417 25.1562 16.7812C25.2604 17.0208 25.401 17.2292 25.5781 17.4062C25.7552 17.5833 25.9688 17.7292 26.2188 17.8438C26.4688 17.9583 26.7292 18.0104 27 18C27.2812 18 27.5417 17.9479 27.7812 17.8438C28.0208 17.7396 28.2292 17.599 28.4062 17.4219C28.5833 17.2448 28.7292 17.0312 28.8438 16.7812C28.9583 16.5312 29.0104 16.2708 29 16C29 15.7188 28.9479 15.4583 28.8438 15.2188C28.7396 14.9792 28.599 14.7708 28.4219 14.5938C28.2448 14.4167 28.0312 14.2708 27.7812 14.1562C27.5312 14.0417 27.2708 13.9896 27 14C26.7188 14 26.4583 14.0521 26.2188 14.1562C25.9792 14.2604 25.7708 14.401 25.5938 14.5781C25.4167 14.7552 25.2708 14.9688 25.1562 15.2188C25.0417 15.4688 24.9896 15.7292 25 16ZM33 24C33 24.5521 33.1042 25.0677 33.3125 25.5469C33.5208 26.026 33.8073 26.4531 34.1719 26.8281C34.5365 27.2031 34.9583 27.4896 35.4375 27.6875C35.9167 27.8854 36.4375 27.9896 37 28C37.5521 28 38.0677 27.8958 38.5469 27.6875C39.026 27.4792 39.4531 27.1927 39.8281 26.8281C40.2031 26.4635 40.4896 26.0417 40.6875 25.5625C40.8854 25.0833 40.9896 24.5625 41 24C41 23.4479 40.8958 22.9323 40.6875 22.4531C40.4792 21.974 40.1927 21.5469 39.8281 21.1719C39.4635 20.7969 39.0417 20.5104 38.5625 20.3125C38.0833 20.1146 37.5625 20.0104 37 20C36.4479 20 35.9323 20.1042 35.4531 20.3125C34.974 20.5208 34.5469 20.8073 34.1719 21.1719C33.7969 21.5365 33.5104 21.9583 33.3125 22.4375C33.1146 22.9167 33.0104 23.4375 33 24Z" fill="white"/>
</g>
<defs>
<clipPath id="clip0_44_75">
<rect width="32" height="32" fill="white" transform="translate(21 12)"/>
</clipPath>
</defs>
</svg>
