<svg width="74" height="55" viewBox="0 0 74 55" fill="none" xmlns="http://www.w3.org/2000/svg">
<rect x="0.532227" y="0.282715" width="73.1777" height="54.6102" rx="10.922" fill="#D66CFF"/>
<path d="M37.0001 16.6667H48.3334C48.3334 19.6725 47.1394 22.5552 45.014 24.6806C42.8885 26.806 40.0059 28.0001 37.0001 28.0001M37.0001 16.6667C33.9943 16.6667 31.1116 17.8608 28.9862 19.9862C26.8608 22.1116 25.6667 24.9943 25.6667 28.0001M37.0001 16.6667V39.3334M25.6667 28.0001C25.6667 31.0059 26.8608 33.8885 28.9862 36.014C31.1116 38.1394 33.9943 39.3334 37.0001 39.3334M25.6667 28.0001H37.0001M37.0001 39.3334H48.3334C48.3334 36.3276 47.1394 33.4449 45.014 31.3195C42.8885 29.1941 40.0059 28.0001 37.0001 28.0001" stroke="white" stroke-width="2" stroke-linecap="round" stroke-linejoin="round"/>
</svg>
