<svg width="74" height="56" viewBox="0 0 74 56" fill="none" xmlns="http://www.w3.org/2000/svg">
<rect x="0.532227" y="0.581665" width="73.1777" height="54.6102" rx="10.922" fill="#FFA732"/>
<path d="M37.0001 28H37.0159M43.3334 18.5V15.3333C43.3334 14.4934 42.9998 13.688 42.4059 13.0941C41.8121 12.5003 41.0066 12.1666 40.1667 12.1666H33.8334C32.9936 12.1666 32.1881 12.5003 31.5942 13.0941C31.0004 13.688 30.6667 14.4934 30.6667 15.3333V18.5M52.8334 29.5833C48.1353 32.685 42.6297 34.3385 37.0001 34.3385C31.3705 34.3385 25.8648 32.685 21.1667 29.5833" stroke="white" stroke-width="3.16667" stroke-linecap="round" stroke-linejoin="round"/>
<path d="M49.6667 18.5H24.3334C22.5845 18.5 21.1667 19.9178 21.1667 21.6667V37.5C21.1667 39.2489 22.5845 40.6667 24.3334 40.6667H49.6667C51.4156 40.6667 52.8334 39.2489 52.8334 37.5V21.6667C52.8334 19.9178 51.4156 18.5 49.6667 18.5Z" stroke="white" stroke-width="3.16667" stroke-linecap="round" stroke-linejoin="round"/>
</svg>
